<?xml version="1.0" encoding="UTF-8"?>
<svg width="46px" height="46px" viewBox="0 0 46 46" version="1.1" xmlns="http://www.w3.org/2000/svg" xmlns:xlink="http://www.w3.org/1999/xlink">
    <!-- Generator: Sketch 53 (72520) - https://sketchapp.com -->
    <title>关于 (1)</title>
    <desc>Created with Sketch.</desc>
    <defs>
        <linearGradient x1="50%" y1="0%" x2="50%" y2="100%" id="linearGradient-1">
            <stop stop-color="#A0C5FE" offset="0%"></stop>
            <stop stop-color="#5B8CFF" offset="100%"></stop>
        </linearGradient>
    </defs>
    <g id="Page-1" stroke="none" stroke-width="1" fill="none" fill-rule="evenodd">
        <g id="我" transform="translate(-31.000000, -398.000000)" fill="url(#linearGradient-1)" fill-rule="nonzero">
            <g id="关于-(1)" transform="translate(31.000000, 398.000000)">
                <path d="M22.0309333,15.3333333 C22.6473333,15.3333333 24.5456,15.0389333 25.1528,14.4562667 C25.7472084,13.8887853 26.0755324,13.0974688 26.0574667,12.2758667 C26.0700895,11.4597785 25.7422954,10.6752948 25.1528,10.1108 C24.5810036,9.53199178 23.7982135,9.21090389 22.9846667,9.22146667 C22.1844156,9.21131618 21.4146594,9.52807917 20.8533333,10.0985333 C20.2643767,10.6677512 19.9397866,11.4569943 19.9578667,12.2758667 C19.9578667,13.1590667 20.2614667,13.8889333 20.8625333,14.4685333 C21.4666667,15.0450667 21.4329333,15.3333333 22.0309333,15.3333333 Z M23,0 C10.2978667,0 0,10.2948 0,23 C0,35.7052 10.2978667,46 23,46 C35.7052,46 46,35.7052 46,23 C46,10.2948 35.7052,0 23,0 Z M23,42.9333333 C15.8785058,42.9333334 9.29797382,39.1340616 5.7372267,32.9666668 C2.17647959,26.7992719 2.17647959,19.2007281 5.7372267,13.0333332 C9.29797382,6.86593841 15.8785058,3.06666656 23,3.06666667 C34.0088759,3.06666683 42.933333,11.9911241 42.933333,23 C42.933333,34.0088759 34.0088759,42.9333332 23,42.9333333 L23,42.9333333 Z M24.8921333,29.5872 L24.1776,30.2986667 L26.082,20.1970667 C26.0942667,20.1296 26.0728,20.0621333 26.0758667,19.9946667 L26.0758667,19.964 C26.0844852,19.5540316 25.9209898,19.1591957 25.6250667,18.8753333 L25.6128,18.8538667 C25.6036,18.8446667 25.5913333,18.8446667 25.5821333,18.8354667 C25.404316,18.6711702 25.1914242,18.5495177 24.9596,18.4797333 C24.8798667,18.4552 24.8154667,18.4092 24.7296,18.3969333 C24.6713333,18.3877333 24.6130667,18.4030667 24.5517333,18.4 L24.4014667,18.4030667 C23.8169122,18.4065542 23.2783664,18.7208033 22.9877333,19.228 L18.8538667,23.3588 C18.2322886,23.9812249 18.2329751,24.9896886 18.8554,25.6112667 C19.4778249,26.2328447 20.4862886,26.2321582 21.1078667,25.6097333 L21.8193333,24.8982667 L19.918,34.9998667 C19.9057333,35.0704 19.9272,35.1348 19.9241333,35.2053333 L19.9241333,35.236 C19.9136004,35.6463259 20.0774035,36.0419048 20.3749333,36.3246667 L20.3872,36.3430667 L20.4178667,36.3645333 C20.5979908,36.524947 20.8102073,36.6451682 21.0404,36.7172 C21.1170667,36.7417333 21.1814667,36.7846667 21.2673333,36.8 C21.3286667,36.8092 21.3869333,36.7908 21.4482667,36.7969333 L21.5985333,36.7908 C22.1829692,36.7898389 22.7222463,36.4763329 23.0122667,35.9689333 L27.1461333,31.8350667 C27.5476761,31.4324284 27.7039118,30.8461547 27.5559882,30.2970894 C27.4080645,29.748024 26.9784545,29.319583 26.4289882,29.173156 C25.8795218,29.026729 25.293676,29.1845617 24.8921333,29.5872 L24.8921333,29.5872 Z" id="Shape"></path>
            </g>
        </g>
    </g>
</svg>