<?xml version="1.0" encoding="UTF-8"?>
<svg width="37px" height="37px" viewBox="0 0 37 37" version="1.1" xmlns="http://www.w3.org/2000/svg" xmlns:xlink="http://www.w3.org/1999/xlink">
    <!-- Generator: Sketch 53 (72520) - https://sketchapp.com -->
    <title>公交车 (1) copy 2</title>
    <desc>Created with Sketch.</desc>
    <g id="Page-1" stroke="none" stroke-width="1" fill="none" fill-rule="evenodd">
        <g id="公交车详情" transform="translate(-60.000000, -1073.000000)" fill="#000000" fill-rule="nonzero">
            <g id="公交车-(1)-copy-2" transform="translate(60.000000, 1073.000000)">
                <path d="M34.7788556,8.8806243 L34.0402081,8.8806243 L34.0402081,5.17646232 C34.0402081,3.95908324 33.1455082,2.51279528 32.0531421,1.96653543 C32.0531421,1.96653543 28.1206242,-4.01878819e-10 18.5026009,0 C8.88457753,4.01878819e-10 4.94685787,1.96653543 4.94685787,1.96653543 C3.85449178,2.51279528 2.95979193,3.95908324 2.95979193,5.17646232 L2.95979193,8.8806243 L2.22114438,8.8806243 C0.997648687,8.88347 0.00571397654,9.87322082 0,11.0968785 L0,13.3183352 C0.00286002914,14.5440251 0.995626831,15.5369315 2.22114438,15.5397919 L2.95979193,15.5397919 L2.95979193,30.7102081 C2.96441786,31.6499772 3.55715316,32.4861635 4.44228877,32.8016029 L4.44228877,34.0397919 C4.44228877,35.6746697 5.76743275,37 7.4020807,37 C9.03672864,37 10.3618726,35.6746697 10.3618726,34.0397919 L10.3618726,32.9316648 L26.6381274,32.9316648 L26.6381274,34.0397919 C26.6381274,35.6746697 27.9632714,37 29.5979193,37 C31.2325672,37 32.5577112,35.6746697 32.5577112,34.0397919 L32.5577112,32.8016029 C33.4438225,32.487453 34.0371217,31.6504711 34.0402081,30.7102081 L34.0402081,15.5397919 L34.7788556,15.5397919 C36.0043732,15.5369315 36.99714,14.5440251 37,13.3183352 L37,11.0968785 C36.994286,9.87322082 36.0023513,8.88347 34.7788556,8.8806243 Z M11,3.7486819 C11.0028732,3.33639229 11.3363923,3.0028732 11.7486819,3 L25.2513181,3 C25.6636077,3.0028732 25.9971268,3.33639229 26,3.7486819 L26,5.24604569 C26.0000101,5.66039282 25.6656551,5.99710247 25.2513181,6 L11.7486819,6 C11.3343449,5.99710247 10.9999899,5.66039282 11,5.24604569 L11,3.7486819 Z M8,30 C6.8954305,30 6,29.1045695 6,28 C6,26.8954305 6.8954305,26 8,26 C9.1045695,26 10,26.8954305 10,28 C9.99691386,29.1032887 9.10328865,29.9969139 8,30 L8,30 Z M29,30 C27.8954305,30 27,29.1045695 27,28 C27,26.8954305 27.8954305,26 29,26 C30.1045695,26 31,26.8954305 31,28 C31,29.1045695 30.1045695,30 29,30 L29,30 Z M31,21.2789062 C30.9971834,21.6760034 30.6702377,21.9972327 30.266074,22 L6.73909448,22 C6.3329138,22.0000098 6.00284042,21.6779754 6,21.2789062 L6,9.72109375 C6.00284042,9.32202465 6.3329138,8.99999024 6.73909448,9 L30.266074,9 C30.6702377,9.00276733 30.9971834,9.32399658 31,9.72109375 L31,21.2789062 Z" id="Shape"></path>
            </g>
        </g>
    </g>
</svg>