<?xml version="1.0" encoding="UTF-8"?>
<svg width="40px" height="48px" viewBox="0 0 40 48" version="1.1" xmlns="http://www.w3.org/2000/svg" xmlns:xlink="http://www.w3.org/1999/xlink">
    <!-- Generator: Sketch 53 (72520) - https://sketchapp.com -->
    <title>Group 3</title>
    <desc>Created with Sketch.</desc>
    <g id="Page-1" stroke="none" stroke-width="1" fill="none" fill-rule="evenodd">
        <g id="公交车详情" transform="translate(-126.000000, -848.000000)">
            <g id="Group-6" transform="translate(33.000000, 848.000000)">
                <g id="Group-3" transform="translate(93.000000, 0.000000)">
                    <path d="M14.3389671,39.1875429 C6.05021846,36.745925 0,29.0795146 0,20 C0,8.954305 8.954305,0 20,0 C31.045695,0 40,8.954305 40,20 C40,29.0795146 33.9497815,36.745925 25.6610329,39.1875429 L20.8661856,47.4986117 C20.5901965,47.9769927 19.9786586,48.1410639 19.5002775,47.8650748 C19.348042,47.7772466 19.2216426,47.6508472 19.1338144,47.4986117 L14.3389671,39.1875429 Z" id="Combined-Shape" fill="#6F82B3"></path>
                    <g id="公交车-(1)-copy" transform="translate(10.000000, 10.000000)" fill="#FFFFFF" fill-rule="nonzero">
                        <path d="M18.7993814,4.80033746 L18.4001125,4.80033746 L18.4001125,2.79808774 C18.4001125,2.14004499 17.9164909,1.35826772 17.3260228,1.06299213 C17.3260228,1.06299213 15.2003374,-2.17231794e-10 10.0014059,0 C4.80247434,2.17231794e-10 2.67397722,1.06299213 2.67397722,1.06299213 C2.08350907,1.35826772 1.59988753,2.14004499 1.59988753,2.79808774 L1.59988753,4.80033746 L1.20061859,4.80033746 C0.53926956,4.80187567 0.00308863597,5.33687612 0,5.99831271 L0,7.19910011 C0.0015459617,7.86163518 0.538176665,8.39834133 1.20061859,8.39988751 L1.59988753,8.39988751 L1.59988753,16.6001125 C1.60238803,17.1080958 1.92278549,17.5600884 2.40123717,17.7305962 L2.40123717,18.3998875 C2.40123717,19.2836052 3.11753122,20 4.0011247,20 C4.88471819,20 5.60101223,19.2836052 5.60101223,18.3998875 L5.60101223,17.8008999 L14.3989878,17.8008999 L14.3989878,18.3998875 C14.3989878,19.2836052 15.1152818,20 15.9988753,20 C16.8824688,20 17.5987628,19.2836052 17.5987628,18.3998875 L17.5987628,17.7305962 C18.0777419,17.5607854 18.3984442,17.1083628 18.4001125,16.6001125 L18.4001125,8.39988751 L18.7993814,8.39988751 C19.4618233,8.39834133 19.998454,7.86163518 20,7.19910011 L20,5.99831271 C19.9969114,5.33687612 19.4607304,4.80187567 18.7993814,4.80033746 Z M6.00028118,1.99943757 C6.00181344,1.77953432 6.17967778,1.60164497 6.39955012,1.60011249 L13.6004499,1.60011249 C13.8203222,1.60164497 13.9981866,1.77953432 13.9997188,1.99943757 L13.9997188,2.79808774 C13.9997242,3.01908841 13.8214141,3.19867951 13.6004499,3.20022497 L6.39955012,3.20022497 C6.17858592,3.19867951 6.00027577,3.01908841 6.00028118,2.79808774 L6.00028118,1.99943757 Z M4.20075917,16.2007874 C3.64793091,16.2007874 3.19977506,15.7525685 3.19977506,15.1996625 C3.19977506,14.6467565 3.64793091,14.1985377 4.20075917,14.1985377 C4.75358743,14.1985377 5.20174329,14.6467565 5.20174329,15.1996625 C5.2001987,15.7519274 4.75294638,16.1992426 4.20075917,16.2007874 L4.20075917,16.2007874 Z M15.7992408,16.2007874 C15.2464126,16.2007874 14.7982567,15.7525685 14.7982567,15.1996625 C14.7982567,14.6467565 15.2464126,14.1985377 15.7992408,14.1985377 C16.3520691,14.1985377 16.8002249,14.6467565 16.8002249,15.1996625 C16.8002249,15.7525685 16.3520691,16.2007874 15.7992408,16.2007874 L15.7992408,16.2007874 Z M16.8002249,11.6001125 C16.7986927,11.8200157 16.6208283,11.9979051 16.400956,11.9994376 L3.60185576,11.9994376 C3.38088616,11.999443 3.2013203,11.8211077 3.19977506,11.6001125 L3.19977506,5.19966254 C3.2013203,4.97866728 3.38088616,4.80033205 3.60185576,4.80033746 L16.400956,4.80033746 C16.6208283,4.80186994 16.7986927,4.97975929 16.8002249,5.19966254 L16.8002249,11.6001125 Z" id="Shape"></path>
                    </g>
                </g>
            </g>
        </g>
    </g>
</svg>