<?xml version="1.0" encoding="UTF-8"?>
<svg width="196px" height="159px" viewBox="0 0 196 159" version="1.1" xmlns="http://www.w3.org/2000/svg" xmlns:xlink="http://www.w3.org/1999/xlink">
    <!-- Generator: Sketch 53 (72520) - https://sketchapp.com -->
    <title>无数据 (1)</title>
    <desc>Created with Sketch.</desc>
    <g id="Page-1" stroke="none" stroke-width="1" fill="none" fill-rule="evenodd">
        <g id="首页-暂无数据" transform="translate(-277.000000, -528.000000)" fill="#969696" fill-rule="nonzero">
            <g id="无数据-(1)" transform="translate(277.000000, 528.000000)">
                <path d="M194.99375,66.3177734 L174.574219,29.8900391 L174.574219,29.6759766 C174.253125,29.0353516 173.826172,28.5013672 173.183984,28.1808594 L99.9525391,0.726171875 L99.7382812,0.619726563 L99.5253906,0.512695312 C98.9902344,0.192773437 98.4560547,0.085546875 97.9210937,0.085546875 C97.3871094,0.085546875 96.7453125,0.192578125 96.3173828,0.512695312 L96.1039062,0.619726563 L95.8898437,0.726171875 L22.8722656,28.2873047 C22.1236328,28.7148437 21.3753906,29.3558594 20.9478516,30.1035156 L0.528320313,66.7447266 C-0.326757812,68.6675781 0.528320313,70.9107422 2.34570312,71.8724609 L18.9166016,80.0980469 L20.6273438,80.9521484 L20.6273438,123.469531 C20.6273438,124.964648 21.3755859,126.246875 22.7652344,126.993945 L95.8902344,158.079883 C96.5318359,158.401172 97.1730469,158.508008 97.8146484,158.508008 C98.45625,158.508008 99.0972656,158.400977 99.7394531,158.079883 L172.435937,126.886914 L172.65,126.886914 C174.146289,126.353906 175.10957,124.964648 175.10957,123.3625 L175.10957,80.6320312 L176.712695,79.7779297 L192.748633,71.5519531 L193.390625,71.23125 L194.031836,71.23125 C195.52793,70.0566406 195.956055,68.0263672 194.99375,66.3177734 Z M184.943945,63.7539063 L186.441406,66.53125 L121.120117,99.2193359 L120.158008,99.6474609 L119.624023,98.7921875 L103.908203,70.1630859 L103.374219,69.2015625 L104.336328,68.6675781 L169.228516,35.9789063 L169.656445,36.7265625 L184.943945,63.7539062 L184.943945,63.7539063 Z M160.034766,30.5310547 L162.921289,31.4921875 L103.479883,61.6169922 L101.983789,62.3646484 L101.983789,10.5544922 L103.05293,10.875 L160.034766,30.5310547 L160.034766,30.5310547 Z M93.0037109,10.875 L95.5697266,10.0205078 L95.5697266,61.7242188 L94.2865234,61.7242188 L93.9658203,61.5101563 L33.7765625,31.1716797 L35.8078125,30.4240234 L93.0037109,10.875 Z M25.9722656,36.9404297 L26.934375,35.1242188 L92.8966797,68.5609375 L93.8587891,69.0949219 L93.3242187,70.0566406 L77.5021484,98.578125 L76.9675781,99.4333984 L76.0054687,99.00625 L9.82949219,65.8900391 L11.0052734,63.7537109 L25.9722656,36.9404297 Z M30.4625,122.1875 L28.5380859,121.439453 L28.5380859,82.7681641 L28.6451172,82.8751953 L76.8603516,106.911328 C77.3949219,107.125391 77.9294922,107.338477 78.4640625,107.338477 C79.6398437,107.338477 80.7089844,106.697461 81.3505859,105.735156 L93.5380859,84.2644531 L95.5693359,80.7388672 L95.5693359,149.000781 L92.8962891,147.932617 L30.4625,122.1875 L30.4625,122.1875 Z M167.411133,119.408984 L167.411133,121.439453 L165.59375,122.1875 L103.160156,147.932813 L101.983984,148.466797 L101.983984,80.7390625 L104.015234,84.2646484 L116.309375,105.843359 C116.844336,106.804492 117.913672,107.338477 118.982813,107.338477 C119.516797,107.338477 120.052148,107.231445 120.586133,106.911328 L167.519336,83.4091797 L167.519336,119.408789 L167.411133,119.408789 L167.411133,119.408984 L167.411133,119.408984 Z" id="Shape"></path>
            </g>
        </g>
    </g>
</svg>