<?xml version="1.0" encoding="UTF-8"?>
<svg width="30px" height="33px" viewBox="0 0 30 33" version="1.1" xmlns="http://www.w3.org/2000/svg" xmlns:xlink="http://www.w3.org/1999/xlink">
    <!-- Generator: Sketch 53 (72520) - https://sketchapp.com -->
    <title>Shape</title>
    <desc>Created with Sketch.</desc>
    <g id="Page-1" stroke="none" stroke-width="1" fill="none" fill-rule="evenodd">
        <g id="公交" transform="translate(-311.000000, -173.000000)" fill="#8A8A8A" fill-rule="nonzero">
            <g id="搜索" transform="translate(311.000000, 173.000000)">
                <path d="M25.0353069,5.40854983 C22.7900065,2.49421562 19.4537459,0.587642969 15.7718819,0.114780814 C12.0900178,-0.358081341 8.36937302,0.64217226 5.44117966,2.89207416 C-0.673217678,7.61212811 -1.80184406,16.2991739 2.90862912,22.3851348 C7.20798312,27.9611244 15.0855838,29.4376703 21.1618302,25.8064416 L26.0818154,32.1519482 C26.4325853,32.6084881 26.9544108,32.9074099 27.5305524,32.9818406 C28.106694,33.0562712 28.6890674,32.8999988 29.1473876,32.5479837 C30.1057227,31.8094745 30.2824403,30.4484162 29.5436655,29.4958975 L24.55182,23.0568825 C24.5399596,23.0417562 24.5218201,23.0348805 24.5099597,23.0204418 C28.8816113,18.0079598 29.1003501,10.6651453 25.0346093,5.40854983 L25.0353069,5.40854983 Z M20.5353204,22.3624452 C18.2825387,24.0932523 15.4201317,24.8626283 12.5876266,24.4986769 C9.75512146,24.1347256 7.18857493,22.6677781 5.46141217,20.4255841 C1.83849568,15.7442274 2.70619445,9.06255561 7.40861562,5.43123936 C9.66103373,3.70177939 12.5223123,2.93307608 15.3537203,3.29672916 C18.1851283,3.66038223 20.750924,5.1261141 22.4783379,7.36672546 C26.1023495,12.0481376 25.2349097,18.7308218 20.5318321,22.3624452 L20.5353204,22.3624452 Z" id="Shape"></path>
            </g>
        </g>
    </g>
</svg>