<?xml version="1.0" encoding="UTF-8"?>
<svg width="48px" height="49px" viewBox="0 0 48 49" version="1.1" xmlns="http://www.w3.org/2000/svg" xmlns:xlink="http://www.w3.org/1999/xlink">
    <!-- Generator: Sketch 53 (72520) - https://sketchapp.com -->
    <title>设置</title>
    <desc>Created with Sketch.</desc>
    <defs>
        <linearGradient x1="50%" y1="0%" x2="50%" y2="100%" id="linearGradient-1">
            <stop stop-color="#98B5FC" offset="0%"></stop>
            <stop stop-color="#6592FC" offset="100%"></stop>
        </linearGradient>
    </defs>
    <g id="Page-1" stroke="none" stroke-width="1" fill="none" fill-rule="evenodd">
        <g id="公交车详情" transform="translate(-637.000000, -590.000000)" fill="url(#linearGradient-1)" fill-rule="nonzero">
            <g id="设置" transform="translate(637.000000, 590.000000)">
                <path d="M42.3213686,26.88875 C42.4200364,26.10475 42.4940372,25.3085 42.4940372,24.5 C42.4940372,23.6915 42.4200364,22.89525 42.3213686,22.11125 L47.5384262,18.0565 C48.007098,17.689 48.1427661,17.0275 47.8344294,16.4885 L42.9010417,7.99925001 C42.592705,7.47250003 41.9513646,7.25200003 41.3963584,7.47250003 L35.2542907,9.93475003 C33.9839434,8.96700005 32.5902614,8.14625001 31.0855781,7.52150001 L30.1605679,1.029 C30.0495667,0.453249981 29.5438945,0 28.927221,0 L19.0604456,0 C18.4437721,0 17.9380999,0.453249981 17.8394321,1.029 L16.9144219,7.52150001 C15.4234582,8.1391539 14.0216432,8.95065864 12.7457093,9.93475003 L6.60364156,7.47250003 C6.03987791,7.25885754 5.40325811,7.48172136 5.09895829,7.99925001 L0.165570586,16.4885 C-0.142766127,17.01525 -0.00709800322,17.67675 0.461573849,18.0565 L5.66629791,22.11125 C5.56763014,22.89525 5.49362932,23.6915 5.49362932,24.5 C5.49362932,25.3085 5.56763014,26.10475 5.66629791,26.88875 L0.461573849,30.9435 C-0.00709800322,31.311 -0.142766127,31.9725 0.165570586,32.5115 L5.09895829,41.00075 C5.407295,41.5275 6.04863544,41.748 6.60364156,41.5275 L12.7457093,39.06525 C14.0160566,40.0329999 15.4097386,40.85375 16.9144219,41.4785 L17.8394321,47.971 C17.9380999,48.54675 18.4437721,49 19.0604456,49 L28.927221,49 C29.5438945,49 30.0495667,48.54675 30.1482344,47.971 L31.0732446,41.4785 C32.5642083,40.8608461 33.9660233,40.0493414 35.2419573,39.06525 L41.384025,41.5275 C41.9477886,41.7411425 42.5844084,41.5182786 42.8887083,41.00075 L47.822096,32.5115 C48.1304327,31.98475 47.9947646,31.32325 47.5260927,30.9435 L42.3213686,26.88875 L42.3213686,26.88875 Z M23.9938333,33.075 C19.2207807,33.075 15.3604048,29.24075 15.3604048,24.5 C15.3604048,19.75925 19.2207807,15.925 23.9938333,15.925 C28.7668859,15.925 32.6272618,19.75925 32.6272618,24.5 C32.6272618,29.24075 28.7668859,33.075 23.9938333,33.075 Z" id="Shape"></path>
            </g>
        </g>
    </g>
</svg>