<?xml version="1.0" encoding="UTF-8"?>
<svg width="35px" height="38px" viewBox="0 0 35 38" version="1.1" xmlns="http://www.w3.org/2000/svg" xmlns:xlink="http://www.w3.org/1999/xlink">
    <!-- Generator: Sketch 53 (72520) - https://sketchapp.com -->
    <title>公交站牌</title>
    <desc>Created with Sketch.</desc>
    <g id="Page-1" stroke="none" stroke-width="1" fill="none" fill-rule="evenodd">
        <g id="公交车详情---站点详情" transform="translate(-60.000000, -1072.000000)" fill="#000000" fill-rule="nonzero">
            <g id="公交站牌" transform="translate(61.000000, 1073.000000)">
                <path d="M2.29540433,-0.0513039207 C0.953522841,-0.0513039207 -0.132696434,1.04778143 -0.132696434,2.40458292 L-0.132696434,24.507501 C-0.132696434,25.8651275 0.953585596,26.9633244 2.29540433,26.9633244 L14.4384184,26.9633244 L14.4384184,36.9486326 L19.295624,36.9486326 L19.295624,26.9633244 L31.438638,26.9633244 C32.7809588,26.9633244 33.8673036,25.8651275 33.8673036,24.5075645 L33.8673036,2.40458292 C33.8673663,1.04778143 32.7810215,-0.0513673819 31.4387008,-0.0513673819 L2.29540433,-0.0513039207 Z M4.8256369,22.0063249 L4.8256369,14.8909403 L6.9506369,14.8909403 L6.9506369,22.0063249 L4.8256369,22.0063249 Z M14.7423036,22.0063249 L12.6173036,22.0063249 L12.6173036,14.8909403 L14.7423036,14.8909403 L14.7423036,22.0063249 L14.7423036,22.0063249 Z M21.825582,22.0063249 L19.7006369,22.0063249 L19.7006369,14.8909403 L21.8256369,14.8909403 L21.8256369,22.0063249 L21.825582,22.0063249 Z M28.9089702,22.0063249 L26.7839702,22.0063249 L26.7839702,14.8909403 L28.9089702,14.8909403 L28.9089702,22.0063249 Z M31.7423036,9.91017108 L2.7006369,9.91017108 L2.7006369,2.79478646 L31.7423036,2.79478646 L31.7423036,9.91017108 L31.7423036,9.91017108 Z M11.9089702,4.92940185 L4.8256369,4.92940185 L4.8256369,7.06401723 L11.9089702,7.06401723 L11.9089702,4.92940185 L11.9089702,4.92940185 Z" id="Shape"></path>
            </g>
        </g>
    </g>
</svg>