<?xml version="1.0" encoding="UTF-8"?>
<svg width="56px" height="56px" viewBox="0 0 56 56" version="1.1" xmlns="http://www.w3.org/2000/svg" xmlns:xlink="http://www.w3.org/1999/xlink">
    <!-- Generator: Sketch 53 (72520) - https://sketchapp.com -->
    <title>Combined Shape</title>
    <desc>Created with Sketch.</desc>
    <g id="Page-1" stroke="none" stroke-width="1" fill="none" fill-rule="evenodd">
        <g id="公交车详情" transform="translate(-613.000000, -191.000000)" fill="#FFFFFF">
            <g id="Group" transform="translate(33.000000, 148.000000)">
                <path d="M608,99 C592.536027,99 580,86.463973 580,71 C580,55.536027 592.536027,43 608,43 C623.463973,43 636,55.536027 636,71 C636,86.463973 623.463973,99 608,99 Z M624.901004,69.1089467 C625.321955,69.1088352 625.705875,68.8849971 625.889671,68.5325208 C626.073467,68.1800446 626.024862,67.7608305 625.764504,67.4529642 L618.61081,58.9945104 C618.405436,58.7518206 618.093243,58.6084902 617.761353,58.6045171 C617.429462,58.6005441 617.113412,58.7363539 616.901399,58.9740472 L609.360202,67.432501 C609.088145,67.7377146 609.030089,68.1617636 609.211216,68.5207245 C609.392342,68.8796853 609.780025,69.1088984 610.206113,69.1089467 L614.214161,69.1089467 C614.214161,75.7272495 611.84352,80.6911044 607.10334,84 C615.568498,83.3697342 620.224033,78.4058792 621.070494,69.1089467 L624.901004,69.1089467 Z M592.098996,72.8910533 C591.678045,72.8911648 591.294125,73.1150029 591.110329,73.4674792 C590.926533,73.8199554 590.975138,74.2391695 591.235496,74.5470358 L598.38919,83.0054896 C598.594564,83.2481794 598.906757,83.3915098 599.238647,83.3954829 C599.570538,83.3994559 599.886588,83.2636461 600.098601,83.0259528 L607.639798,74.567499 C607.911855,74.2622854 607.969911,73.8382364 607.788784,73.4792755 C607.607658,73.1203147 607.219975,72.8911016 606.793887,72.8910533 L602.785839,72.8910533 C602.785839,66.2727505 605.15648,61.3088956 609.89666,58 C601.431502,58.6302658 596.775967,63.5941208 595.929506,72.8910533 L592.098996,72.8910533 Z" id="Combined-Shape"></path>
            </g>
        </g>
    </g>
</svg>