<?xml version="1.0" encoding="UTF-8"?>
<svg width="93px" height="93px" viewBox="0 0 93 93" version="1.1" xmlns="http://www.w3.org/2000/svg" xmlns:xlink="http://www.w3.org/1999/xlink">
    <!-- Generator: Sketch 53 (72520) - https://sketchapp.com -->
    <title>Group</title>
    <desc>Created with Sketch.</desc>
    <g id="Page-1" stroke="none" stroke-width="1" fill="none" fill-rule="evenodd">
        <g id="login" transform="translate(-141.000000, -114.000000)">
            <g id="Group" transform="translate(141.000000, 114.000000)">
                <path d="M93,47.0740741 C93,20.8182222 72.1817778,0 45.9259259,0 C20.8182222,0 0,20.8182222 0,47.0740741 C0,72.1817778 20.8182222,93 45.9259259,93 C72.1817778,93 93,72.1817778 93,47.0740741 Z" id="Fill-" fill="#09BB07"></path>
                <g id="登录用户名" transform="translate(25.000000, 23.000000)" fill="#FFFFFF" fill-rule="nonzero">
                    <path d="M9.33313068,11.953125 C9.33313072,18.4424708 14.5563487,23.703125 20.9995146,23.7031249 C27.4426805,23.7031249 32.6658985,18.4424707 32.6658985,11.953125 C32.6658984,5.46377917 27.4426805,0.203125 20.9995146,0.203125 C17.9053972,0.203125 14.9380068,1.44106788 12.7501354,3.64462033 C10.562264,5.84817279 9.33313067,8.83683127 9.33313068,11.953125 Z M31.6392567,26.288125 L30.6826132,26.288125 C30.2857833,26.2980173 29.8957695,26.3942155 29.5393076,26.570125 C29.5393076,26.570125 28.7693262,27.016625 28.0693432,27.322125 C25.8517223,28.2541044 23.4724503,28.7333694 21.0695129,28.732125 C18.6650833,28.7488381 16.2827736,28.2689612 14.0696825,27.322125 C13.3696995,27.016625 12.5763854,26.570125 12.5763854,26.570125 C12.225475,26.3792606 11.8318476,26.2821711 11.4330798,26.288125 L10.4297708,26.288125 C6.32617733,27.0425936 2.90659866,29.890418 1.39998961,33.808125 C0.471254011,36.1638206 -0.00385410019,38.6760156 2.35453914e-05,41.210625 C0.0819603665,41.9599637 0.515861721,42.6242208 1.16666192,42.996625 C1.16666192,42.996625 7.69983692,47.203125 20.9995146,47.203125 C34.2991922,47.203125 40.8323672,42.996625 40.8323672,42.996625 C41.4894242,42.6195181 41.9242624,41.9450678 41.9990056,41.187125 C42.0243609,38.6931031 41.5646119,36.2182122 40.645705,33.902125 C39.2001704,29.9150712 35.7793448,26.9874217 31.6392567,26.194125 L31.6392567,26.288125 Z" id="Shape"></path>
                </g>
            </g>
        </g>
    </g>
</svg>